<?xml version="1.0" encoding="UTF-8"?>
<!DOCTYPE svg PUBLIC "-//W3C//DTD SVG 1.1//EN" "http://www.w3.org/Graphics/SVG/1.1/DTD/svg11.dtd">
<!-- Creator: CorelDRAW 2021.5 -->
<svg xmlns="http://www.w3.org/2000/svg" xml:space="preserve" width="3000px" height="2076px" version="1.1" style="shape-rendering:geometricPrecision; text-rendering:geometricPrecision; image-rendering:optimizeQuality; fill-rule:evenodd; clip-rule:evenodd"
viewBox="0 0 2997.22 2073.63"
 xmlns:xlink="http://www.w3.org/1999/xlink"
 xmlns:xodm="http://www.corel.com/coreldraw/odm/2003">
 <defs>
  <style type="text/css">
   <![CDATA[
    .fil0 {fill:#005A9E}
    .fil1 {fill:#005A9E}
   ]]>
  </style>
 </defs>
 <g id="Layer_x0020_1">
  <metadata id="CorelCorpID_0Corel-Layer"/>
  <g id="_2795744057600">
   <path class="fil0" d="M1012.86 365.22c384.36,-377.87 1030.15,-207.99 1142.27,333.24 5.76,27.81 4.24,76.94 25.04,93.57 5.2,14.38 7.22,14.63 21.52,21.38 28.14,28.63 145.1,-11.57 293.03,42.96 122.72,45.24 241.31,152.41 294.52,274.87 157.66,362.85 -72.33,759.96 -444.42,782.33 -118.12,7.11 -257.08,0.41 -377.52,0.48l-1128.71 0c-128.06,0.09 -217.95,8.08 -341.48,-36.07 -72.47,-25.9 -173.65,-98.12 -219.46,-160.05 -289.57,-391.52 -29.42,-865.3 376.51,-893.14 48.74,-3.34 129.67,13.59 162.25,-26.4 18.49,-22.7 18.1,-156.59 92.09,-289.97 23.75,-42.8 69.27,-106 104.36,-143.2zm-326.63 296.34c-48.71,12.32 -113.43,-5.36 -259.05,56.62 -183.69,78.18 -308.99,215.7 -383.13,400.77 -36.72,91.66 -51.11,219.31 -40.8,317.08 29.43,279.15 207.5,514.23 471.46,602.13 113.39,37.76 201.54,35.28 318.91,35.13 236.82,-0.31 473.68,-0.09 710.5,0.05 235.31,0.15 470.7,0.56 706,0.04 225.06,-0.49 368.48,-12.96 544.29,-167.06 228.46,-200.26 298.62,-502.15 198.06,-789.23 -62.69,-178.97 -200.69,-319.04 -371.05,-394.65 -86.49,-38.38 -174.98,-54.48 -269.98,-59.05 -76.15,-281.12 -237.72,-497.23 -509.27,-605.45 -214.67,-85.56 -475.84,-77.58 -681.77,32.09 -243.59,129.74 -358.55,308.3 -434.17,571.53z"/>
   <path class="fil0" d="M1738.75 834.16l143.09 0.7c1.92,-84.84 -58.09,-187.24 -113.11,-245.76 -60.16,-63.98 -152.63,-108.06 -241.98,-114.52 -109.56,-7.92 -185.85,20.96 -268.68,87.5 -28.83,23.16 -61.16,63.4 -81.02,96.02 -46.58,76.5 -34.88,99.89 -50.44,132.4 -127.63,24.35 -186.67,66.78 -267.82,164.65 -74.58,89.95 -109.22,209.68 -102.62,327.96 12.96,232.26 214.45,434.98 448.3,428l0.28 -150.63c-396.86,-35.42 -366.89,-532.28 -71.84,-614.22 29.08,-8.08 96.45,-6.37 110.58,-15.3 52.69,-33.28 -4.78,-89.77 60.65,-194.6 29.38,-47.07 85.94,-92.52 142.75,-105.52 149.05,-26.42 263.66,51.89 291.86,203.32z"/>
   <path class="fil1" d="M1370 988.81l228.55 0 0 298.97 -305.03 0 0 -221.43c0,-42.65 34.41,-77.54 76.48,-77.54zm319.56 0l228.56 0c42.06,0 76.48,34.89 76.48,77.54l0 221.43 -305.04 0 0 -298.97zm305.04 391.23l0 241.95c0,42.64 -34.42,77.53 -76.48,77.53l-228.56 0 0 -319.48 305.04 0zm-396.05 319.48l-228.55 0c-42.07,0 -76.48,-34.89 -76.48,-77.53l0 -241.95 305.03 0 0 319.48z"/>
  </g>
 </g>
</svg>
